<svg id="b3e24a56-8da0-4857-81dc-3b1d420643cd" data-name="Ebene 1 Kopie 2" xmlns="http://www.w3.org/2000/svg" viewBox="0 0 1000 1000"><defs><style>.fc1f6a2a-e29e-468d-bf93-a0bcca78fdde{fill:#fce7ae;}.f9b327bf-9493-4da7-80a2-c424ce78ba00,.fc1f6a2a-e29e-468d-bf93-a0bcca78fdde{stroke:#fcc66d;stroke-width:6.36px;}.a996cf9b-62a5-4dbf-9112-d42404dd40ce,.a9e9d120-2b87-426f-93a8-1f550fed5c37,.ab280745-8c60-4321-a2a0-8a69503e5fdd,.b1e4fe69-22d0-4527-9f95-3f0f9008775e,.b62f0b15-558e-4658-86de-15c40309d505,.b7f5abe9-0ee3-4f67-aed3-da16b9b79978,.b8ca2501-7ba9-4f0c-a334-49e28afe083b,.bd990fa2-72dd-4749-bb02-c90f3354da20,.efd24aba-cb79-4e1d-8a07-c9419f87b08c,.f6a2946c-4edb-4b7b-8fb5-8e23a4ad7c5f,.f9b327bf-9493-4da7-80a2-c424ce78ba00,.fc1f6a2a-e29e-468d-bf93-a0bcca78fdde{stroke-linecap:round;}.a9e9d120-2b87-426f-93a8-1f550fed5c37,.b62f0b15-558e-4658-86de-15c40309d505,.bd990fa2-72dd-4749-bb02-c90f3354da20,.efd24aba-cb79-4e1d-8a07-c9419f87b08c,.f9b327bf-9493-4da7-80a2-c424ce78ba00,.fc1f6a2a-e29e-468d-bf93-a0bcca78fdde{stroke-linejoin:round;}.ab280745-8c60-4321-a2a0-8a69503e5fdd,.b7f5abe9-0ee3-4f67-aed3-da16b9b79978,.bd990fa2-72dd-4749-bb02-c90f3354da20,.efd24aba-cb79-4e1d-8a07-c9419f87b08c,.f6a2946c-4edb-4b7b-8fb5-8e23a4ad7c5f,.f9b327bf-9493-4da7-80a2-c424ce78ba00{fill:none;}.e1e46141-84b9-49b2-bd84-9004ef8843c8,.ff1c17e3-da74-46b2-b9b9-3a698001f40c{fill:#292b82;}.a996cf9b-62a5-4dbf-9112-d42404dd40ce,.bc54c9e7-d4a9-4471-b7e5-8ebfc871e6dc{fill:#e94c16;}.b7f5abe9-0ee3-4f67-aed3-da16b9b79978,.e1e46141-84b9-49b2-bd84-9004ef8843c8{stroke:#292b82;stroke-width:3.03px;}.a996cf9b-62a5-4dbf-9112-d42404dd40ce,.ab280745-8c60-4321-a2a0-8a69503e5fdd,.b1e4fe69-22d0-4527-9f95-3f0f9008775e,.b254fa11-a6ee-4fd0-9490-ebdf48f506e2,.b7f5abe9-0ee3-4f67-aed3-da16b9b79978,.b8ca2501-7ba9-4f0c-a334-49e28afe083b,.e1e46141-84b9-49b2-bd84-9004ef8843c8,.f484002e-186a-4c81-8e2d-da60ec207456,.f6a2946c-4edb-4b7b-8fb5-8e23a4ad7c5f{stroke-miterlimit:10;}.a996cf9b-62a5-4dbf-9112-d42404dd40ce{stroke:#be111f;stroke-width:3.04px;}.a9e9d120-2b87-426f-93a8-1f550fed5c37{fill:#e4e99f;}.a9e9d120-2b87-426f-93a8-1f550fed5c37,.b254fa11-a6ee-4fd0-9490-ebdf48f506e2,.b8ca2501-7ba9-4f0c-a334-49e28afe083b,.bd990fa2-72dd-4749-bb02-c90f3354da20,.f6a2946c-4edb-4b7b-8fb5-8e23a4ad7c5f{stroke:#889e47;}.a9e9d120-2b87-426f-93a8-1f550fed5c37,.bd990fa2-72dd-4749-bb02-c90f3354da20{stroke-width:6.5px;}.a3507dbf-dec2-4de0-b7ce-e64d2df55fd8,.b254fa11-a6ee-4fd0-9490-ebdf48f506e2,.b8ca2501-7ba9-4f0c-a334-49e28afe083b{fill:#889e47;}.b254fa11-a6ee-4fd0-9490-ebdf48f506e2,.f6a2946c-4edb-4b7b-8fb5-8e23a4ad7c5f{stroke-width:3.1px;}.b8ca2501-7ba9-4f0c-a334-49e28afe083b{stroke-width:3.11px;}.b62f0b15-558e-4658-86de-15c40309d505{fill:#e0c479;}.ab280745-8c60-4321-a2a0-8a69503e5fdd,.b1e4fe69-22d0-4527-9f95-3f0f9008775e,.b62f0b15-558e-4658-86de-15c40309d505,.efd24aba-cb79-4e1d-8a07-c9419f87b08c,.f484002e-186a-4c81-8e2d-da60ec207456{stroke:#5d6f01;}.b62f0b15-558e-4658-86de-15c40309d505,.efd24aba-cb79-4e1d-8a07-c9419f87b08c{stroke-width:7.03px;}.a0614552-6ea8-492c-be44-1c4c30eecd17,.b1e4fe69-22d0-4527-9f95-3f0f9008775e,.f484002e-186a-4c81-8e2d-da60ec207456{fill:#5d6f01;}.ab280745-8c60-4321-a2a0-8a69503e5fdd,.f484002e-186a-4c81-8e2d-da60ec207456{stroke-width:3.35px;}.b1e4fe69-22d0-4527-9f95-3f0f9008775e{stroke-width:3.36px;}</style></defs><path class="fc1f6a2a-e29e-468d-bf93-a0bcca78fdde" d="M141.66,68.56C124.78,72.3,76,84.27,69.84,89.67c-9.26,8.09-2.22,13.75-4.28,20.74-1.45,5-6.15,4.23-6.15,9.35,0,9.35-.85,275.91-.85,286.42s3.89,193.69,3.89,193.69,157.66,45.56,168.18,45.56,209-60.08,223-60.84c18.21-1,1.74-50.4,2.49-424.7,0-10.51,1.21-62-.75-73.36-3.91-22.63-52.4-32.19-69.51-37.4-13.4-4.08-70.72-11.88-83.33-11.57S158.53,64.82,141.66,68.56Z"/><path class="f9b327bf-9493-4da7-80a2-c424ce78ba00" d="M73.33,132.32a659.27,659.27,0,0,0,65.33,20.08c18.72,4.5,40.43,12,61.39,18"/><path class="f9b327bf-9493-4da7-80a2-c424ce78ba00" d="M228,617.64s.1-55.63,0-70.08c-.28-44.81,3.43-364.53.1-384.55-3.47-20.83-158.28-58.9-158.28-72.91,0,0-11.56,12.73,4.62,26.62s45.26,18,35,1.25"/><path class="ff1c17e3-da74-46b2-b9b9-3a698001f40c" d="M276.39,57.18s68.43,13.13,82.36,18.87c12.73,5.24,46.42,5.24,47.16,43.42.24,12-1.42,45.21-1.42,59.19-25.92,11.2-119.69,38.22-119.69,38.22s-.45-68.6-10.93-81.33C258.92,117.4,154.09,86.14,154.09,86.14Z"/><path class="ff1c17e3-da74-46b2-b9b9-3a698001f40c" d="M302.88,626.6c-.19-12,.89-39.45.95-53.43C330.55,564.59,423.74,538,423.74,538s-1.12,24.18.31,52.8Z"/><path class="bc54c9e7-d4a9-4471-b7e5-8ebfc871e6dc" d="M123.72,410.81c-2,2.18-4.64,4.34-5.49,7.5-4.28,15.62,6.49,36.32,17,42.22,10-5,10.81-29.17-.22-44-3.08-4.1-7.4-4.39-11.25-5.7"/><path class="bc54c9e7-d4a9-4471-b7e5-8ebfc871e6dc" d="M144.23,493.31c24.14,2.66,36.07-8.5,36.37-30.17a29.15,29.15,0,0,0-3.24-14.83c-6.13-3.86-10.93-3-14.94-1.58-15.1,5.35-22.45,24.37-18.19,46.58"/><path class="bc54c9e7-d4a9-4471-b7e5-8ebfc871e6dc" d="M135.18,486.67c-3.86-14.26-14-29.91-27.82-36.15-8.9-4-12.42-1.85-17.62.76-.79,5.22,1,10.62,3.14,15,7.65,15.65,25.43,21.06,42.3,20.43"/><path class="bc54c9e7-d4a9-4471-b7e5-8ebfc871e6dc" d="M143.16,530.14c16.43,11.41,41.62,11.38,50-4.1,2.61-4.89,3.47-9.33,2.22-17.58-4.59-4.11-8.32-6.62-13.12-7.56-19.08-3.74-35.94,7.75-39.12,29.24"/><path class="bc54c9e7-d4a9-4471-b7e5-8ebfc871e6dc" d="M134.78,525.76c-7.27-21.57-27.64-38-45.57-38.43a19.2,19.2,0,0,0-13.49,4.9c.48,6.63,1.9,10.91,5.3,15.9,13.93,20.64,41.86,27.45,53.76,17.63"/><path class="bc54c9e7-d4a9-4471-b7e5-8ebfc871e6dc" d="M149.26,587.84A127,127,0,0,1,137,584.17c5.73-17.77,6-24.9,5.08-45.3l2.28.64c3.12,9.79,6.23,30.61,4.89,48.33"/><path class="b7f5abe9-0ee3-4f67-aed3-da16b9b79978" d="M371.88,324.76a118.15,118.15,0,0,0-29-2.69c-22.23.34-33.62,5.13-42.79,10.51-4.62,2.7-5.62,7.34-9.66,10.85-3.29,2.86-8.79,17.05-7.21,21.54,4.16,11.78,32.62,18.34,59.06,18.13,29.41-.24,57.16-8.37,62.07-21.31,1.53-4-3.22-18.79-8.25-22-2.45-1.57-7.24-9.89-9.91-11l-3.77,8.09c.85.65,3.5,4.16,3.5,4.63,0,3.09-20,9.36-43.24,9.64s-41.22-3.86-41.08-8.42c.27-8.61,34.56-11.43,34.56-11.43"/><path class="e1e46141-84b9-49b2-bd84-9004ef8843c8" d="M343.27,341.79c-16.43.21-29.64,4.19-29.62,5.63s12.59,4,29,3.82a150.34,150.34,0,0,0,15.3-1s1.92-2.6,5.14-6.92A107.84,107.84,0,0,0,343.27,341.79Z"/><path class="ff1c17e3-da74-46b2-b9b9-3a698001f40c" d="M437.47,218.46c1.88,0,3.36,2.44,3.73,3.75C420.13,244,413.75,257.08,411.34,262c-.29.59-.51,1-.68,1.37-7.44,13.81-22.75,54.56-29.23,71.91-1,2.7-1.9,5.1-2.3,6.14-.8.6-3.19,1.75-10.31,3.25-1.29.27-2.73.55-4.11.8,6-14.64,26.45-60.35,36.46-82.41,7.63-16.75,32.23-41.63,35.28-44.42a2.57,2.57,0,0,1,1-.22m-.83,0h0m.91-3.15a5.34,5.34,0,0,0-2.43.62c-.55.29-28,27.35-36.36,45.74-6.94,15.29-39.37,87.6-38.32,87.62h0c2.14-.32,5.86-1,8.85-1.6,5.54-1.17,10.42-2.54,12-4.36.31-.35,22.45-61.3,31.66-78.4,1.85-3.42,6.82-16.67,30.71-41.2,1.37-1.41-1.49-8.42-6.13-8.42Z"/><path class="b7f5abe9-0ee3-4f67-aed3-da16b9b79978" d="M292.58,349.79c5,5.22,16.91,14,49.82,13.62,43.05-.45,51.23-12.16,53.46-15.67"/><path class="a996cf9b-62a5-4dbf-9112-d42404dd40ce" d="M431.9,399.67c-4.33-11.28-14.82-31.65-26-38.92C390,391.31,293.05,388.1,283,364c-3,1.95-31.13,33.66-29.42,66.1s8.69,48.9,18.87,60,25.64,24.71,44.19,28.92,52.19-3,74.28-13.15c15.19-7,28.07-14.23,38.06-40.32S436.22,411,431.9,399.67ZM353.72,467.2a18.69,18.69,0,0,1-1.87-10.53c3.51-3.54,7.37-3.68,10.83-3.25,13,1.61,24,14.27,27.08,30.69C372.35,488.33,360.21,481.91,353.72,467.2Zm36.92-8.42c-9-2.26-16.62-19.34-12.51-31.73,1.16-3.48,4.39-4.44,7-6.07,2.21,1.23,4.84,2.37,6.41,4.55C399.28,436.38,396.94,453.16,390.64,458.78Zm33.95-.68C423.07,470.86,411,476.59,398,477.75c-1.08-10.8,2.24-23.49,11.05-29.9,5.71-4.16,9-3,13.75-1.65A20.25,20.25,0,0,1,424.59,458.1Z"/><path class="ff1c17e3-da74-46b2-b9b9-3a698001f40c" d="M88,188.16l106.93,26.62c1.21,17.74.47,158.29.47,175.1L87.1,361.4C87,343.54,85.26,202.63,88,188.16Z"/><path class="a9e9d120-2b87-426f-93a8-1f550fed5c37" d="M385.78,187c-17.26,3.82-67.13,16.06-73.41,21.58-9.47,8.27-2.27,14.05-4.37,21.2-1.49,5.12-6.29,4.33-6.29,9.56,0,9.56-.87,282-.87,292.79s4,198,4,198S466,776.65,476.73,776.65s213.6-61.41,227.9-62.19c18.62-1,1.78-51.52,2.55-434.14,0-10.74,1.24-63.41-.77-75-4-23.13-53.56-32.91-71-38.23-13.7-4.17-72.3-12.14-85.18-11.83S403,183.14,385.78,187Z"/><path class="bd990fa2-72dd-4749-bb02-c90f3354da20" d="M315.94,252.14a674.45,674.45,0,0,0,66.78,20.53c19.13,4.59,41.32,12.24,62.75,18.37"/><path class="bd990fa2-72dd-4749-bb02-c90f3354da20" d="M474.08,748.24s.09-56.87,0-71.64c-.3-45.8,3.5-372.62.09-393.09-3.55-21.3-161.79-60.2-161.79-74.53,0,0-11.82,13,4.72,27.21s46.27,18.37,35.77,1.28"/><path class="a3507dbf-dec2-4de0-b7ce-e64d2df55fd8" d="M523.51,175.33s70,13.42,84.19,19.28c13,5.36,47.44,5.36,48.21,44.39.24,12.24.06,39.47.06,53.75-26.49,11.46-123.87,45.82-123.87,45.82s-.46-70.12-11.17-83.13c-15.28-18.55-122.44-50.51-122.44-50.51Z"/><path class="a3507dbf-dec2-4de0-b7ce-e64d2df55fd8" d="M367.44,536.81c-2.09,2.23-4.74,4.44-5.61,7.67-4.37,16,6.63,37.13,17.34,43.16,10.18-5.06,11.05-29.82-.22-45-3.16-4.2-7.57-4.49-11.51-5.84"/><path class="a3507dbf-dec2-4de0-b7ce-e64d2df55fd8" d="M388.41,621.15c24.67,2.72,36.87-8.69,37.18-30.84a29.89,29.89,0,0,0-3.31-15.16C416,571.2,411.1,572,407,573.54c-15.44,5.46-22.94,24.9-18.59,47.61"/><path class="a3507dbf-dec2-4de0-b7ce-e64d2df55fd8" d="M379.16,614.37c-4-14.59-14.33-30.59-28.44-37-9.1-4.06-12.7-1.89-18,.77-.8,5.34,1,10.87,3.22,15.3,7.82,16,26,21.52,43.24,20.89"/><path class="a3507dbf-dec2-4de0-b7ce-e64d2df55fd8" d="M387.32,658.8c16.8,11.66,42.54,11.63,51.13-4.19,2.66-5,3.54-9.54,2.27-18-4.7-4.2-8.5-6.76-13.42-7.72-19.5-3.82-36.73,7.92-40,29.89"/><path class="a3507dbf-dec2-4de0-b7ce-e64d2df55fd8" d="M378.74,654.32c-7.42-22.05-28.25-38.87-46.58-39.28a19.58,19.58,0,0,0-13.78,5c.49,6.78,1.94,11.15,5.41,16.25,14.24,21.1,42.79,28.06,54.95,18"/><path class="a3507dbf-dec2-4de0-b7ce-e64d2df55fd8" d="M393.56,717.78A124.79,124.79,0,0,1,381,714c5.87-18.15,6.11-25.44,5.2-46.3l2.33.65c3.19,10,6.37,31.3,5,49.41"/><path class="f6a2946c-4edb-4b7b-8fb5-8e23a4ad7c5f" d="M621.12,448.85a121.31,121.31,0,0,0-29.64-2.75c-22.73.35-34.37,5.25-43.75,10.74-4.72,2.77-5.75,7.51-9.87,11.1-3.37,2.92-9,17.43-7.37,22,4.25,12,33.34,18.74,60.37,18.53,30.06-.24,58.43-8.55,63.45-21.78,1.56-4.12-3.29-19.21-8.43-22.49-2.51-1.59-7.4-10.1-10.13-11.21l-3.86,8.27c.87.67,3.58,4.25,3.58,4.74,0,3.16-20.47,9.57-44.2,9.85s-42.13-3.94-42-8.6c.27-8.81,35.33-11.69,35.33-11.69"/><path class="b254fa11-a6ee-4fd0-9490-ebdf48f506e2" d="M591.87,466.26c-16.79.21-30.29,4.29-30.27,5.75s12.86,4.11,29.63,3.91a151,151,0,0,0,15.64-1s2-2.65,5.25-7.07A110.39,110.39,0,0,0,591.87,466.26Z"/><path class="a3507dbf-dec2-4de0-b7ce-e64d2df55fd8" d="M688.46,339.6c1.92,0,3.43,2.49,3.81,3.83-21.54,22.25-28.06,35.64-30.52,40.71-.29.6-.52,1.08-.7,1.4-7.6,14.12-23.24,55.77-29.87,73.52-1,2.76-1.95,5.21-2.35,6.27-.82.61-3.26,1.79-10.54,3.32-1.32.28-2.79.56-4.2.82,6.15-15,27-61.69,37.27-84.24,7.8-17.12,32.94-42.55,36.06-45.41a2.66,2.66,0,0,1,1-.22m-.84,0h0m.92-3.22a5.46,5.46,0,0,0-2.48.63c-.57.3-28.61,27.95-37.17,46.76-7.1,15.63-40.24,89.54-39.17,89.56h0c2.19-.33,6-1,9-1.63,5.66-1.2,10.65-2.59,12.28-4.45.32-.37,23-62.67,32.37-80.15,1.89-3.5,7-17,31.39-42.11,1.41-1.45-1.52-8.61-6.27-8.61Z"/><path class="f6a2946c-4edb-4b7b-8fb5-8e23a4ad7c5f" d="M540.05,474.44c5.12,5.33,17.29,14.27,50.94,13.93,44-.46,52.36-12.44,54.64-16"/><path class="b8ca2501-7ba9-4f0c-a334-49e28afe083b" d="M682.47,525.43c-4.42-11.53-15.15-32.35-26.55-39.78-16.31,31.23-115.38,28-125.61,3.33-3.06,2-31.83,34.41-30.08,67.57s8.89,50,19.29,61.37,26.21,25.26,45.17,29.56,53.36-3.05,75.93-13.44c15.53-7.16,28.7-14.54,38.91-41.21S686.89,537,682.47,525.43Zm-79.91,69a19.16,19.16,0,0,1-1.92-10.76c3.59-3.62,7.54-3.76,11.08-3.33C625,582,636.28,595,639.4,611.74,621.6,616.06,609.19,609.49,602.56,594.46Zm37.73-8.61c-9.19-2.31-17-19.77-12.79-32.44,1.19-3.55,4.49-4.54,7.12-6.2,2.26,1.26,5,2.43,6.55,4.65C649.13,563,646.74,580.11,640.29,585.85Zm34.7-.69c-1.54,13-13.87,18.9-27.15,20.08-1.11-11,2.29-24,11.29-30.56,5.84-4.25,9.22-3.06,14.06-1.68A20.64,20.64,0,0,1,675,585.16Z"/><path class="a3507dbf-dec2-4de0-b7ce-e64d2df55fd8" d="M330.91,309.22l109.31,27.21c1.23,18.13.47,161.81.47,179L330,486.31C329.86,468.05,328.13,324,330.91,309.22Z"/><path class="b62f0b15-558e-4658-86de-15c40309d505" d="M594.24,307.74c-18.64,4.12-72.52,17.35-79.3,23.3-10.23,8.94-2.46,15.19-4.73,22.91-1.61,5.53-6.79,4.67-6.79,10.32,0,10.33-.94,304.68-.94,316.29s4.29,213.88,4.29,213.88,174.1,50.31,185.71,50.31,230.75-66.34,246.2-67.18c20.11-1.09,1.92-55.65,2.75-469,0-11.61,1.34-68.51-.83-81-4.32-25-57.86-35.55-76.75-41.3-14.8-4.5-78.1-13.11-92-12.78S612.87,303.61,594.24,307.74Z"/><path class="efd24aba-cb79-4e1d-8a07-c9419f87b08c" d="M518.79,378.15a731.6,731.6,0,0,0,72.14,22.17c20.67,5,44.64,13.23,67.78,19.84"/><path class="efd24aba-cb79-4e1d-8a07-c9419f87b08c" d="M689.62,914.06s.1-61.43,0-77.39c-.32-49.47,3.78-402.53.1-424.64C685.89,389,515,347,515,331.53c0,0-12.77,14.05,5.1,29.38s50,19.85,38.64,1.39"/><path class="a0614552-6ea8-492c-be44-1c4c30eecd17" d="M743,295.17s75.56,14.5,91,20.83c14,5.79,51.25,5.79,52.08,47.95.25,13.22-1.58,49.93-1.58,65.36-28.62,12.38-132.17,42.21-132.17,42.21s-.5-75.76-12.07-89.81c-16.5-20-132.26-54.56-132.26-54.56Z"/><path class="a0614552-6ea8-492c-be44-1c4c30eecd17" d="M772.27,924c-.21-13.23,1-43.57,1.05-59,29.5-9.48,132.4-38.82,132.4-38.82s-1.23,26.7.35,58.31Z"/><path class="a0614552-6ea8-492c-be44-1c4c30eecd17" d="M574.43,685.67c-2.26,2.4-5.13,4.79-6.07,8.28-4.72,17.25,7.17,40.11,18.74,46.62,11-5.47,11.94-32.21-.24-48.61-3.41-4.52-8.17-4.84-12.43-6.29"/><path class="a0614552-6ea8-492c-be44-1c4c30eecd17" d="M597.08,776.77c26.65,2.94,39.83-9.39,40.17-33.32a32.43,32.43,0,0,0-3.58-16.38c-6.78-4.26-12.08-3.35-16.51-1.73-16.67,5.9-24.78,26.9-20.08,51.43"/><path class="a0614552-6ea8-492c-be44-1c4c30eecd17" d="M587.09,769.44c-4.26-15.75-15.49-33-30.73-39.92-9.83-4.38-13.71-2-19.46.84-.86,5.76,1.13,11.73,3.48,16.52,8.44,17.28,28.07,23.25,46.71,22.56"/><path class="a0614552-6ea8-492c-be44-1c4c30eecd17" d="M595.9,817.44c18.15,12.6,46,12.57,55.23-4.53,2.88-5.4,3.83-10.3,2.46-19.41-5.08-4.55-9.19-7.31-14.5-8.35C618,781,599.41,793.71,595.9,817.44"/><path class="a0614552-6ea8-492c-be44-1c4c30eecd17" d="M586.64,812.6c-8-23.82-30.52-42-50.32-42.43a21.22,21.22,0,0,0-14.9,5.41c.54,7.32,2.1,12,5.86,17.56,15.38,22.79,46.22,30.31,59.36,19.46"/><path class="a0614552-6ea8-492c-be44-1c4c30eecd17" d="M602.64,881.16a138.53,138.53,0,0,1-13.54-4.06c6.33-19.62,6.59-27.49,5.61-50l2.52.71c3.45,10.82,6.88,33.81,5.41,53.38"/><path class="ab280745-8c60-4321-a2a0-8a69503e5fdd" d="M848.47,590.65c-7.86-1.8-17.73-3.19-32-3-24.55.37-37.12,5.67-47.25,11.6-5.1,3-6.21,8.11-10.67,12-3.63,3.16-9.71,18.83-8,23.79,4.59,13,36,20.25,65.21,20,32.48-.26,63.13-9.24,68.55-23.53,1.68-4.45-3.56-20.75-9.11-24.29-2.71-1.73-8-10.91-11-12.11l-4.16,8.93c.94.72,3.86,4.59,3.86,5.12,0,3.41-22.11,10.34-47.75,10.64s-45.51-4.26-45.35-9.29C771.15,601,809,597.91,809,597.91"/><path class="f484002e-186a-4c81-8e2d-da60ec207456" d="M816.87,609.45c-18.14.23-32.73,4.63-32.71,6.21s13.9,4.44,32,4.23a168.47,168.47,0,0,0,16.9-1.08s2.12-2.87,5.67-7.64A118.72,118.72,0,0,0,816.87,609.45Z"/><path class="a0614552-6ea8-492c-be44-1c4c30eecd17" d="M921.21,472.62c2.08,0,3.71,2.69,4.12,4.14-23.27,24-30.31,38.51-33,44-.32.65-.57,1.16-.76,1.51-8.21,15.25-25.11,60.25-32.27,79.42-1.11,3-2.1,5.63-2.54,6.78-.88.65-3.52,1.92-11.39,3.58-1.42.3-3,.61-4.53.89,6.64-16.17,29.2-66.64,40.26-91,8.42-18.49,35.59-46,39-49a2.82,2.82,0,0,1,1.13-.25m-.91.05h0m1-3.47a5.85,5.85,0,0,0-2.68.68c-.62.32-30.9,30.2-40.15,50.51-7.67,16.89-43.47,96.73-42.32,96.75h0c2.36-.35,6.47-1.07,9.78-1.76,6.11-1.29,11.5-2.8,13.26-4.81.35-.39,24.8-67.69,35-86.58,2-3.78,7.53-18.4,33.91-45.49,1.52-1.56-1.64-9.3-6.77-9.3Z"/><path class="ab280745-8c60-4321-a2a0-8a69503e5fdd" d="M760.89,618.29c5.53,5.76,18.67,15.41,55,15,47.53-.5,56.57-13.43,59-17.31"/><path class="b1e4fe69-22d0-4527-9f95-3f0f9008775e" d="M914.74,673.37c-4.78-12.45-16.36-35-28.68-43-17.62,33.74-124.64,30.2-135.69,3.6-3.31,2.15-34.38,37.17-32.49,73s9.59,54,20.83,66.3,28.31,27.28,48.8,31.93,57.63-3.29,82-14.51c16.78-7.74,31-15.72,42-44.53S919.51,685.84,914.74,673.37Zm-86.33,74.57a20.62,20.62,0,0,1-2.07-11.63c3.88-3.91,8.15-4.06,12-3.59,14.35,1.78,26.53,15.76,29.9,33.89C849,771.27,835.58,764.18,828.41,747.94Zm40.77-9.3c-9.93-2.5-18.36-21.36-13.82-35,1.28-3.85,4.85-4.91,7.69-6.7,2.44,1.36,5.34,2.62,7.08,5C878.72,713.91,876.14,732.43,869.18,738.64Zm37.48-.75c-1.67,14.09-15,20.42-29.33,21.7-1.19-11.93,2.47-26,12.2-33,6.31-4.59,10-3.3,15.18-1.82C907,729.09,907.14,733.93,906.66,737.89Z"/><path class="a0614552-6ea8-492c-be44-1c4c30eecd17" d="M535,439.8,653,469.2c1.33,19.59.52,174.8.52,193.36L534,631.11C533.83,611.38,532,455.79,535,439.8Z"/></svg>